<?xml version="1.0" encoding="UTF-8" standalone="no"?> <svg width="64" height="64" viewBox="0 0 64 64" fill="none" xmlns="http://www.w3.org/2000/svg">
<path d="M49.2599 28.4102H14.7399C13.4563 28.4102 12.2252 28.9201 11.3175 29.8278C10.4098 30.7354 9.8999 31.9665 9.8999 33.2502V48.1702C9.90255 49.4521 10.4136 50.6806 11.321 51.5861C12.2284 52.4916 13.458 53.0002 14.7399 53.0002H49.2599C50.5418 53.0002 51.7714 52.4916 52.6788 51.5861C53.5862 50.6806 54.0973 49.4521 54.0999 48.1702V33.2502C54.0999 31.9665 53.59 30.7354 52.6823 29.8278C51.7746 28.9201 50.5436 28.4102 49.2599 28.4102V28.4102ZM52.0999 48.1702C52.0973 48.9216 51.7969 49.6414 51.2646 50.1719C50.7322 50.7023 50.0114 51.0002 49.2599 51.0002H14.7399C13.9884 51.0002 13.2676 50.7023 12.7352 50.1719C12.2029 49.6414 11.9025 48.9216 11.8999 48.1702V33.2502C11.8999 32.4969 12.1991 31.7746 12.7317 31.242C13.2643 30.7094 13.9867 30.4102 14.7399 30.4102H49.2599C50.0131 30.4102 50.7355 30.7094 51.2681 31.242C51.8007 31.7746 52.0999 32.4969 52.0999 33.2502V48.1702Z" fill="black"/>
<path d="M14.94 25.5104C15.2052 25.5104 15.4596 25.4051 15.6471 25.2175C15.8346 25.03 15.94 24.7756 15.94 24.5104C15.9864 23.7544 16.3258 23.0464 16.886 22.5366C17.4462 22.0268 18.183 21.7556 18.94 21.7804H45C45.7654 21.7421 46.5151 22.0074 47.0861 22.5185C47.6572 23.0296 48.0035 23.7454 48.05 24.5104C48.05 24.7756 48.1554 25.03 48.3429 25.2175C48.5304 25.4051 48.7848 25.5104 49.05 25.5104C49.3152 25.5104 49.5696 25.4051 49.7571 25.2175C49.9446 25.03 50.05 24.7756 50.05 24.5104C50.003 23.2151 49.4458 21.9908 48.4997 21.1047C47.5537 20.2187 46.2957 19.7426 45 19.7804H19C17.7129 19.756 16.4677 20.238 15.5325 21.1227C14.5973 22.0073 14.047 23.2239 14 24.5104C13.9995 24.7656 14.0966 25.0112 14.2714 25.1971C14.4461 25.383 14.6853 25.4951 14.94 25.5104Z" fill="black"/>
<path d="M20.5801 16.7203C20.8453 16.7203 21.0997 16.615 21.2872 16.4274C21.4748 16.2399 21.5801 15.9855 21.5801 15.7203C21.6241 14.9643 21.963 14.2557 22.5241 13.747C23.0851 13.2384 23.8234 12.9702 24.5801 13.0003H39.3801C40.1368 12.9702 40.8751 13.2384 41.4362 13.747C41.9972 14.2557 42.3362 14.9643 42.3801 15.7203C42.3801 15.9855 42.4855 16.2399 42.673 16.4274C42.8605 16.615 43.1149 16.7203 43.3801 16.7203C43.6453 16.7203 43.8997 16.615 44.0872 16.4274C44.2748 16.2399 44.3801 15.9855 44.3801 15.7203C44.3357 14.4339 43.7858 13.2168 42.8498 12.3331C41.9137 11.4495 40.667 10.9706 39.3801 11.0003H24.6201C23.3332 10.9706 22.0865 11.4495 21.1505 12.3331C20.2144 13.2168 19.6645 14.4339 19.6201 15.7203C19.6199 15.9788 19.7198 16.2272 19.8987 16.4137C20.0777 16.6001 20.3219 16.71 20.5801 16.7203Z" fill="black"/>
</svg>
